<svg width="500" height="473" fill="none" xmlns="http://www.w3.org/2000/svg"><path d="M237.997 296.491c2.338 0 4.234-1.803 4.234-4.027s-1.896-4.027-4.234-4.027h-27.872c-2.338 0-4.233 1.802-4.233 4.027 0 2.223 1.895 4.027 4.233 4.027h27.872Z" fill="#465C69"/><path d="M378.237 161.443c-8.866 1.368-17.785 4.054-26.496 7.913v-34.367c0-16.536-14.142-29.989-31.523-29.989H137.534c-19.791 0-34.784 17.247-30.926 35.829 1.323 6.368 7.284 10.99 14.175 10.99h39.809v115.045c0 2.224 1.895 4.027 4.233 4.027 2.338 0 4.234-1.803 4.234-4.027.12-145.776-.012-133.938-.289-135.866-.99-7.043-4.549-13.323-9.76-17.944h161.209c12.714 0 23.058 9.84 23.058 21.935v38.52c-11.327 6.114-21.608 13.936-30.448 22.63H210.125c-2.338 0-4.233 1.803-4.233 4.027s1.895 4.027 4.233 4.027h95.156c-4.645 5.381-8.756 11.007-12.266 16.77h-82.89c-2.338 0-4.233 1.803-4.233 4.027s1.895 4.027 4.233 4.027h78.421c-2.768 5.5-4.941 10.869-6.664 16.769h-71.757c-2.338 0-4.233 1.803-4.233 4.028 0 2.224 1.895 4.027 4.233 4.027h69.813c-.788 4.185-1.217 8.332-1.278 12.401l-16.028 15.247c-2.675 2.544-.744 6.874 2.994 6.874a4.333 4.333 0 0 0 2.993-1.179l16.021-15.241c20.87-.291 41.787-8.892 58.636-20.481v68.165H232.468c-9.721 0-17.346 7.582-17.296 16.69v.023c-.205 12.794-10.705 22.052-23.057 22.052-12.714 0-23.058-9.839-23.058-21.935v-53.483c0-2.224-1.895-4.027-4.233-4.027-2.338 0-4.233 1.803-4.233 4.027v53.483c0 16.535 14.138 29.986 31.518 29.989h148.387c8.521 0 16.871-3.334 22.907-9.146 5.971-5.749 9.204-13.282 9.104-21.211-.125-9.684-8.131-16.462-17.365-16.462h-3.401v-74.501c9.482-7.676 17.841-16.513 24.66-26.004 1.319-1.837.824-4.343-1.106-5.597-1.931-1.256-4.564-.784-5.884 1.052-17.32 24.106-46.047 44.422-75.531 48.574l67.855-64.551c1.653-1.572 1.653-4.122 0-5.695-1.653-1.573-4.333-1.573-5.987 0l-67.863 64.559c6.293-40.728 48.94-81.469 91.709-88.071 3.986-.616 7.507 2.72 6.858 6.524-1.419 8.317-4.378 16.832-8.793 25.309-1.039 1.992-.182 4.409 1.913 5.396 2.094.988 4.634.172 5.672-1.82 4.792-9.198 8.011-18.482 9.565-27.594 1.575-9.234-6.868-17.263-16.572-15.765Zm-257.455-17.678c-2.859 0-5.327-1.891-5.868-4.497-2.791-13.433 7.92-26.043 22.33-26.212l7.03.957c9.595 2.794 16.317 11.357 16.317 20.976v8.776h-39.809Zm243.252 192.092.007.328c.156 12.273-10.777 22.205-23.545 22.205H213.601c6.284-5.582 9.922-13.042 10.037-22.095-.026-4.72 3.859-8.616 8.829-8.616h122.675c4.777.001 8.766 3.669 8.892 8.178Z" fill="#465C69"/><path d="M224 336.5s-1-7.5 9-9 122.5 0 122.5 0l8 3.5s3 5 0 13.5-7 10-15.5 13.5-133.5 0-133.5 0l4-5 5.5-16.5Z" fill="#465C69" stroke="#465C69" stroke-width="10"/><path d="M238.013 168.065c2.338 0 4.234-1.804 4.234-4.028 0-2.224-1.896-4.027-4.234-4.027h-27.872c-2.338 0-4.233 1.803-4.233 4.027s1.895 4.028 4.233 4.028h27.872Z" fill="#465C69"/><path d="M496 236.391c0 128.138-109.924 232.391-246 232.391S4 364.529 4 236.391C4 108.253 113.924 4 250 4s246 104.253 246 232.391Z" stroke="#465C69" stroke-width="8"/><path d="M113.5 126.5c3.327-8.223 6.045-12.093 15.5-15h4c4.07-3.246 7.127-3.58 9.5-1 9.975.95 12.204 6.521 18.5 14l3.5 19.5c-13.828 4.385-20.409 5.893-30 5l-20-3.5c-3.232-4.988-2.512-13.462-1-19Z" fill="#465C69" stroke="#465C69"/></svg>