<svg width="48" height="48" fill="none" xmlns="http://www.w3.org/2000/svg"><path d="M.5 24C.5 11.021 11.022.5 24 .5 36.977.5 47.5 11.022 47.5 24S36.977 47.5 24 47.5C11.022 47.5.5 36.978.5 24Z" fill="#fff" stroke="#465C69"/><path d="M37.049 13.228c0 1.299-1.537 1.972-3.339 1.972-1.801 0-3.186-.673-3.186-1.972 0-1.3 1.46-2.352 3.262-2.352s3.263 1.053 3.263 2.352ZM13.19 37.2a2.278 2.278 0 0 1-2.276-2.276 2.278 2.278 0 0 1 2.276-2.276h14.915l-.68.759a2.273 2.273 0 0 0 0 3.034l.68.759H13.19Z" fill="#465C69"/><path d="M29.12 37.2a2.278 2.278 0 0 1-2.275-2.276 2.278 2.278 0 0 1 2.276-2.276H15.135V13.644c0-1.628 1.676-2.844 3.175-2.844h15.463l-.723.767c-.4.424-.619.96-.619 1.509v21.051c0 1.484-1.101 3.073-2.741 3.073h-.57Z" fill="#fff"/><path d="M36.797 11.155a2.796 2.796 0 0 0-1.987-.835h-16.5c-1.728 0-3.655 1.365-3.655 3.324v18.524H13.19a2.759 2.759 0 0 0-2.756 2.756 2.759 2.759 0 0 0 2.756 2.756h16.5c1.746 0 3.221-1.627 3.221-3.553v-18.31c.023.003.043.014.066.014.167.005.329.007.484.007 1.735 0 2.764-.267 3.394-.868.46-.44.693-1.056.711-1.884a2.663 2.663 0 0 0-.77-1.931ZM27.032 36.72H13.19c-.99 0-1.796-.806-1.796-1.796s.806-1.796 1.796-1.796h13.842a2.743 2.743 0 0 0-.667 1.796c0 .685.251 1.313.667 1.796Zm4.92-2.593c0 1.252-.91 2.593-2.262 2.593h-.57c-.99 0-1.795-.806-1.795-1.796s.806-1.796 1.796-1.796a.48.48 0 1 0 0-.96H15.615V13.644c0-1.331 1.449-2.364 2.695-2.364h14.352a2.68 2.68 0 0 0-.71 1.796v21.051Zm4.24-19.852c-.472.45-1.484.644-3.19.597-.033 0-.06.012-.09.017v-1.813c0-.957.887-1.796 1.898-1.796.487 0 .96.2 1.3.547.33.336.507.776.496 1.239-.012.567-.144.951-.414 1.21Z" fill="#465C69"/><path d="M29.115 20h-10.23c-.49 0-.885.224-.885.5s.396.5.885.5h10.23c.49 0 .885-.224.885-.5s-.396-.5-.885-.5ZM29.115 17h-10.23c-.49 0-.885.224-.885.5s.396.5.885.5h10.23c.49 0 .885-.224.885-.5s-.396-.5-.885-.5ZM29.245 23.065H18.321a.48.48 0 1 0 0 .96h10.924a.48.48 0 1 0 0-.96ZM29.245 25.796H18.321a.48.48 0 1 0 0 .96h10.924a.48.48 0 1 0 0-.96ZM29.245 28.527H18.321a.48.48 0 1 0 0 .96h10.924a.48.48 0 1 0 0-.96Z" fill="#465C69"/></svg>