<svg width="14" height="14" fill="none" xmlns="http://www.w3.org/2000/svg"><path d="M12.688 7H10.5V5.25c0-.965.785-1.75 1.75-1.75h.219a.655.655 0 0 0 .656-.656V1.53a.655.655 0 0 0-.656-.656h-.219A4.374 4.374 0 0 0 7.875 5.25v6.563c0 .724.588 1.312 1.313 1.312h3.5c.724 0 1.312-.588 1.312-1.313v-3.5C14 7.588 13.412 7 12.687 7ZM4.811 7H2.626V5.25c0-.965.785-1.75 1.75-1.75h.219a.655.655 0 0 0 .656-.656V1.53a.655.655 0 0 0-.656-.656h-.219A4.374 4.374 0 0 0 0 5.25v6.563c0 .724.588 1.312 1.313 1.312h3.5c.724 0 1.312-.588 1.312-1.313v-3.5C6.125 7.588 5.537 7 4.812 7Z" fill="#465C69"/></svg>