<svg width="48" height="48" fill="none" xmlns="http://www.w3.org/2000/svg"><path d="M24 0C10.746 0 0 10.744 0 23.999 0 37.254 10.746 48 24 48s24-10.746 24-24.001S37.254 0 24 0Zm-3.426 16.924 10.32 6.087-1.3 2.204-10.32-6.087 1.3-2.204Zm-2.76 5.904 11.57 3.11-.665 2.471-11.57-3.11.664-2.471Zm-1.148 5.35 11.93 1.1-.234 2.547-11.931-1.098.235-2.549Zm11.64 4.38.002 2.56-11.982.005v-2.559l11.98-.005Zm4.083 6.014s0 .597-.02.597v.01H13.2s-.598 0-.598-.01h-.02V26.7h2.047v10.462h15.715V26.7h2.047v11.872ZM31.31 22.66l-6.75-9.899 2.114-1.442 6.75 9.9-2.114 1.44Zm2.573-1.597L31.833 9.26l2.522-.438 2.05 11.805-2.522.437Z" fill="#465C69"/></svg>