<svg width="48" height="48" fill="none" xmlns="http://www.w3.org/2000/svg"><path d="M47.5 24c0 12.979-10.521 23.5-23.5 23.5S.5 36.979.5 24 11.021.5 24 .5 47.5 11.021 47.5 24Z" fill="#fff" stroke="#465C69"/><path opacity=".2" d="M14.25 41.625a1.126 1.126 0 0 1-1.098-1.373l6.75-30a1.125 1.125 0 0 1 2.194.494l-6.75 30a1.124 1.124 0 0 1-1.095.879ZM33.748 41.625c-.525 0-.995-.37-1.101-.905l-6-30a1.125 1.125 0 1 1 2.206-.441l6 30a1.124 1.124 0 0 1-1.105 1.346Z" fill="#231F20"/><path d="m21 9-6.75 30M27.75 9l6 30M24 26.531V39" stroke="#465C69" stroke-width="3" stroke-miterlimit="10" stroke-linecap="round" stroke-linejoin="round"/><path d="M36.25 28.681c0 .368-.397.819-1.094.819H12.844c-.697 0-1.094-.45-1.094-.819V14.819c0-.367.396-.818 1.094-.818h22.312c.697 0 1.094.45 1.094.819V28.68Z" fill="#fff" stroke="#465C69"/><path d="M17.25 13.875h13.5M17.25 30.375h13.5" stroke="#788891" stroke-width="3" stroke-miterlimit="10" stroke-linecap="round" stroke-linejoin="round"/><path d="M14.625 27s8.25-13.5 8.25-7.5 0 7.5 1.5 6 5.25-6 9-6.75" stroke="#465C69" stroke-width="3" stroke-miterlimit="10" stroke-linecap="round"/></svg>