<svg version="1.1" id="Capa_1" x="0" y="0" width="97.75" height="97.75" style="enable-background:new 0 0 97.75 97.75" xml:space="preserve" xmlns="http://www.w3.org/2000/svg"><g id="g4"><path d="M48.875 0C21.882 0 0 21.882 0 48.875S21.882 97.75 48.875 97.75 97.75 75.868 97.75 48.875 75.868 0 48.875 0zM78.43 35.841c.023.577.035 1.155.035 1.736 0 20.878-15.887 42.473-42.473 42.473a42.306 42.306 0 0 1-22.883-6.708.36.36 0 0 1-.145-.427.365.365 0 0 1 .383-.237c1.148.137 2.322.205 3.487.205 6.323 0 12.309-1.955 17.372-5.664a15.157 15.157 0 0 1-13.161-10.478.364.364 0 0 1 .073-.351.365.365 0 0 1 .339-.115 14.55 14.55 0 0 0 5.04.072c-6.259-1.945-10.658-7.808-10.658-14.483l.002-.194a.362.362 0 0 1 .537-.309 14.493 14.493 0 0 0 5.291 1.711A15.144 15.144 0 0 1 15.96 31.21c0-2.682.71-5.318 2.054-7.623a.36.36 0 0 1 .284-.178.354.354 0 0 1 .309.132c7.362 9.03 18.191 14.59 29.771 15.305a15.344 15.344 0 0 1-.291-2.985c0-8.361 6.802-15.162 15.162-15.162 4.11 0 8.082 1.689 10.929 4.641a29.23 29.23 0 0 0 9.09-3.508.363.363 0 0 1 .41.028c.116.094.164.25.118.394a15.14 15.14 0 0 1-5.33 7.489 29.15 29.15 0 0 0 6.831-2.072.361.361 0 0 1 .447.533 30.22 30.22 0 0 1-7.314 7.637z" id="path2" style="fill:#465c69;fill-opacity:1"/></g></svg>